<?xml version="1.0" encoding="utf-8"?>
<!-- Svg Vector Icons : http://www.onlinewebfonts.com/icon -->
<!DOCTYPE svg PUBLIC "-//W3C//DTD SVG 1.1//EN" "http://www.w3.org/Graphics/SVG/1.1/DTD/svg11.dtd">
<svg version="1.1" xmlns="http://www.w3.org/2000/svg" xmlns:xlink="http://www.w3.org/1999/xlink" x="0px" y="0px" viewBox="0 0 1000 1000" enable-background="new 0 0 1000 1000" xml:space="preserve">
<metadata> Svg Vector Icons : http://www.onlinewebfonts.com/icon </metadata>
<g><g transform="translate(0.000000,512.000000) scale(0.100000,-0.100000)"><path d="M2365.3,5006.2c-92.2-30.7-169-86.4-222.8-163.2l-51.9-74.9v-916V2938l53.8-82.6c38.4-59.5,84.5-96,159.4-130.6c97.9-44.2,119.1-46.1,378.3-40.3c268.9,5.8,278.5,7.7,368.7,63.4c61.5,38.4,107.5,86.4,138.3,144l46.1,84.5l-5.8,894.9l-5.8,896.8l-53.8,76.8c-28.8,42.2-88.3,96-134.4,122.9c-73,42.2-103.7,46.1-349.5,49.9C2538.1,5019.6,2394.1,5013.9,2365.3,5006.2z M2914.5,4685.5c26.9-25,30.7-126.7,30.7-825.8c0-512.7-7.7-810.4-19.2-835.4c-19.2-32.6-42.3-36.5-268.9-36.5s-249.6,3.8-268.9,36.5c-11.5,25-19.2,322.6-19.2,835.4c0,699,3.8,800.8,30.7,825.8c23,25,76.8,30.7,257.3,30.7S2891.5,4710.5,2914.5,4685.5z"/><path d="M7033.7,4998.5c-111.4-42.3-184.4-103.7-226.6-194c-40.3-82.6-42.2-101.8-36.5-977.5l5.8-893l57.6-82.6c96-136.3,167.1-159.4,483.9-167.1c259.2-5.8,280.4-3.8,378.3,40.3c74.9,34.6,121,71.1,159.4,130.6l53.8,82.6v914.1v916l-53.8,76.8c-28.8,42.2-88.3,96-134.4,122.9c-72.9,42.2-105.6,46.1-349.5,51.8C7183.5,5021.6,7081.7,5015.8,7033.7,4998.5z M7600.2,4685.5c26.9-25,30.7-126.7,30.7-825.8c0-512.7-7.7-810.4-19.2-835.4c-19.2-32.6-42.3-36.5-268.8-36.5c-226.6,0-249.6,3.8-268.9,36.5c-11.5,25-19.2,322.6-19.2,835.4c0,699,3.8,800.8,30.7,825.8c23,25,76.8,30.7,257.3,30.7C7523.4,4716.2,7577.2,4710.5,7600.2,4685.5z"/><path d="M733,3957.7c-107.5-40.3-232.4-130.6-290-215.1c-117.1-170.9-109.5,132.5-109.5-4163.3v-3921.4l59.5-117.1c61.4-122.9,163.2-226.6,284.2-286.1c65.3-32.7,253.5-34.6,4322.8-34.6c4069.3,0,4257.4,1.9,4322.8,34.6c113.3,55.7,215.1,155.6,276.5,265l57.6,103.7l5.7,3940.6l3.9,3940.6l-40.3,107.5c-53.8,142.1-190.1,280.4-334.2,334.1c-97.9,36.5-147.9,40.3-556.9,40.3h-451.3v-144v-144h418.6c395.6,0,422.5-1.9,503.2-42.3c63.3-32.6,97.9-67.2,130.6-130.6l42.3-86.4l-3.9-3871.4l-5.7-3871.5l-55.7-71.1c-103.7-136.3,247.7-126.7-4313.1-126.7s-4209.5-9.6-4313.1,126.7l-55.7,71.1l-5.8,3871.5l-3.8,3871.4l42.3,86.4c32.6,63.4,67.2,97.9,130.6,130.6c80.7,40.3,107.5,42.3,503.1,42.3h418.6v144v144l-455.1-1.9C923.1,3984.6,784.8,3976.9,733,3957.7z"/><path d="M3579,3842.5v-144h1411.5h1411.5v144v144H4990.4H3579V3842.5z"/><path d="M4856,1793.4c-5.8-13.4-11.5-144-13.4-291.9l-5.8-265l-146-42.2c-280.4-80.7-489.7-249.6-608.8-489.7c-71.1-142.1-71.1-147.9-71.1-374.5c0-211.2,3.8-242,51.9-343.7c111.4-236.2,345.7-418.6,797-612.6c324.5-138.3,459-220.8,570.3-343.7c190.1-211.2,194-507,9.6-716.3c-238.1-270.8-772-288.1-1242.5-40.3l-121,63.4l-21.1-49.9c-80.6-209.3-109.5-318.8-88.3-336.1c138.3-96,464.7-197.8,702.8-218.9l138.3-11.5v-284.2V-2850h182.4h182.4v293.8v295.8l103.7,23c167.1,36.5,368.7,144,495.4,265c203.5,195.9,288.1,395.6,288.1,687.5c0,382.2-167.1,645.3-551.1,868c-51.9,30.7-199.7,101.8-326.5,157.5c-541.6,236.2-700.9,384.1-700.9,647.2c0,136.3,38.4,222.8,142.1,326.5C4746.6,839,4856,875.5,5113.3,875.5c205.5,0,374.5-36.5,556.9-117.1c67.2-30.7,126.8-51.8,130.6-48c5.8,3.8,38.4,84.5,73,178.6l65.3,169l-128.7,61.5c-134.4,61.4-320.7,111.4-507,130.6l-111.4,11.5v278.5v276.5h-163.3C4915.6,1816.5,4861.8,1808.8,4856,1793.4z"/></g></g>
</svg>